Simulation
nRows=49
nColumns=15
endheader
time  TH_x TH_y TH_z SC_y  SC_z  SC_x  AC_y  AC_z  AC_x  GH_y  GH_z  GH_yy  EL_x  PS_y
1.55  0.000000  0.000000  0.000000  -37.01611110378655  7.650294886412863  9.188624140578124  59.561880796015465  18.63162865502401  -0.8173513716717765  21.732322890588563  53.365547963717226  -20.438441278886184  18.31676400045378  0.000000
1.581  0.000000  0.000000  0.000000  -37.073723743559306  7.761840499412322  9.089129760412167  59.55838932696482  18.9452823794257  -0.5608657051624466  21.71478722095628  53.753680830599215  -20.684220233195465  18.26363237796893  0.000000
1.612  0.000000  0.000000  0.000000  -37.11602365255357  7.851305400634831  8.97097504763411  59.54802471415354  19.232873541707562  -0.3329667038534449  21.71316818237338  54.0670381623009  -20.91834829484553  18.216085045943476  0.000000
1.643  0.000000  0.000000  0.000000  -37.142840491433695  7.9182418491760584  8.83225821419702  59.530352594029935  19.49563116182628  -0.13402855910367537  21.72732499146138  54.30432473650052  -21.140609316137112  18.17422783841571  0.000000
1.674  0.000000  0.000000  0.000000  -37.15331166786253  7.962062726363885  8.671241088575844  59.505325059009536  19.73452914921214  0.03544300716213361  21.75680276786148  54.46428190272124  -21.3510739669083  18.138075481480783  0.000000
1.705  0.000000  0.000000  0.000000  -37.14743016622401  7.982419757873636  8.48671055258287  59.47265257982722  19.95037069277342  0.17519824391094413  21.80125145260455  54.54580572891093  -21.549514135738093  18.107649641331548  0.000000
1.736  0.000000  0.000000  0.000000  -37.12454324916676  7.9789088800441785  8.277655748110822  59.43238251371707  20.143775646162535  0.28499878910994547  21.860118734666848  54.54802740436598  -21.73598330238888  18.082976923839528  0.000000
1.767  0.000000  0.000000  0.000000  -37.08491701307246  7.951383457906946  8.043537470226346  59.38432728018218  20.31527824154936  0.3649349036853973  21.93303999190657  54.47032757612137  -21.910236078272522  18.064053264185997  0.000000
1.798  0.000000  0.000000  0.000000  -37.028195447026064  7.899627380155828  7.783991908206397  59.32861086864229  20.46523669573621  0.4151026586434162  22.019468246091684  54.31234094529688  -22.072230549823928  18.05089254118143  0.000000
1.829  0.000000  0.000000  0.000000  -36.954975082106735  7.823669031654595  7.49903597421024  59.265058495502714  20.593922364443667  0.4359385728237273  22.1190987447824  54.07389059632172  -22.221574254587686  18.043509851617788  0.000000
1.8599999999999999  0.000000  0.000000  0.000000  -36.865241422048435  7.7234052568484195  7.1889017741746  59.1938398164591  20.70132396575858  0.4277409894741642  22.231472265554522  53.75499450724441  -22.358154394372548  18.041939327336657  0.000000
1.891  0.000000  0.000000  0.000000  -36.75992011729088  7.5988370495284325  6.854188605692942  59.11490560530283  20.787266148445386  0.3910497432576157  22.356304972536666  53.355771148195146  -22.4816065035874  18.046159417414067  0.000000
1.922  0.000000  0.000000  0.000000  -36.63949876273981  7.449666932901807  6.495925311541509  59.02873202084097  20.851049322679145  0.3259544750481785  22.493188941901987  52.8764925689225  -22.59173359220822  18.0561968056835  0.000000
1.953  0.000000  0.000000  0.000000  -36.5054593975845  7.275537672983322  6.1157006834833645  58.93565260243503  20.891515765326318  0.23255546117969733  22.641830982274666  52.3174850710823  -22.68799890853087  18.07206310201251  0.000000
1.984  0.000000  0.000000  0.000000  -36.35844544802522  7.075904808350626  5.715586620091535  58.836472519410464  20.90669036080824  0.11032768561465454  22.801517026621962  51.679118188068784  -22.769903553389224  18.093540947846627  0.000000
2.015  0.000000  0.000000  0.000000  -36.199952575761316  6.850193198366106  5.297792950234946  58.731336361077204  20.893831426038147  -0.04127386368243168  22.97183174700098  50.96207318490074  -22.836452503328225  18.12066835470024  0.000000
2.046  0.000000  0.000000  0.000000  -36.03098386464175  6.597274960986749  4.866263781368443  58.62113374950984  20.847699160268263  -0.22458596005842912  23.152537555041736  50.16799107275752  -22.887228996346913  18.15350004858129  0.000000
2.077  0.000000  0.000000  0.000000  -35.85295267477707  6.315660503521413  4.426861795992312  58.50695727169622  20.760902789069984  -0.44286481199934147  23.34279253946666  49.29937553633187  -22.92137179718835  18.192099782869253  0.000000
2.108  0.000000  0.000000  0.000000  -35.66690614723656  6.0026467476882654  3.988543132563777  58.39209550407793  20.623379985529454  -0.7018038287815491  23.540790974346727  48.360176512476194  -22.93831936163598  18.23619766984423  0.000000
2.139  0.000000  0.000000  0.000000  -35.47492776424114  5.6546351482703585  3.5624136163282376  58.280294864347226  20.423508577172335  -1.0079543991013493  23.743998990741858  47.35586431614416  -22.937101673457715  18.286026796576632  0.000000
2.17  0.000000  0.000000  0.000000  -35.278012474962246  5.267597217921023  3.1622982779463955  58.17667117370335  20.148391167947512  -1.3694130035003085  23.94921362880106  46.293063634772814  -22.9180426618576  18.34127052882133  0.000000
2.201  0.000000  0.000000  0.000000  -35.0768727662457  4.838840843033095  2.8007798203933354  58.08440994546694  19.788170383949527  -1.7907606638019207  24.152827825285687  45.17781425133184  -22.881902636902694  18.401719852562792  0.000000
2.232  0.000000  0.000000  0.000000  -34.87029701998371  4.371069395341363  2.485808618964592  58.004396039784986  19.339666330377  -2.2699510335387707  24.35361297348728  44.01313454693652  -22.832822454391504  18.46710005959862  0.000000
2.263  0.000000  0.000000  0.000000  -34.65464627129036  3.873950332572534  2.2113178895561973  57.930164542366654  18.814811868757552  -2.7910725400791434  24.555213346765637  42.797584627973045  -22.77822737239651  18.536730590720058  0.000000
2.294  0.000000  0.000000  0.000000  -34.42328515721128  3.3632440732471967  1.9569697373248078  57.84902413496887  18.241488390097388  -3.326494795527862  24.766521061102036  41.525350058140155  -22.728567804614883  18.610017055738663  0.000000
2.325  0.000000  0.000000  0.000000  -34.173494410509015  2.8594361980819807  1.6920329813781567  57.747017388314404  17.657289483237122  -3.8410760639735115  24.998210747053175  40.189697437169144  -22.692321304858726  18.68729237864181  0.000000
2.356  0.000000  0.000000  0.000000  -33.906417480470736  2.3770984515862725  1.386929478323684  57.61602281583576  17.100225299269514  -4.305615014905319  25.25732991214913  38.78751026460691  -22.67209035843354  18.769084841907244  0.000000
2.387  0.000000  0.000000  0.000000  -33.62749814905272  1.9200200157278726  1.0243156657337356  57.454442432798736  16.596128423212516  -4.705860791552285  25.54568665518923  37.32344626179965  -22.66368232536335  18.855975315204326  0.000000
2.418  0.000000  0.000000  0.000000  -33.34342990118987  1.4850251986158727  0.600033494520818  57.26755825598904  16.156278565229044  -5.041625130986458  25.861005715045042  35.80708320017079  -22.6597405139415  18.948349012526755  0.000000
2.449  0.000000  0.000000  0.000000  -33.0612970429789  1.0638171273463315  0.12040332204711533  57.06310370618885  15.77926316225006  -5.3217564745458805  26.19698245767905  34.250383703217274  -22.65012397697316  19.046412021389244  0.000000
2.48  0.000000  0.000000  0.000000  -32.78619772631075  0.6483075525421412  -0.4006427983298489  56.84986143688362  15.453936970042063  -5.55877473232322  26.546276150860677  32.66351464335948  -22.62612694830459  19.149802390127608  0.000000
2.511  0.000000  0.000000  0.000000  -32.522419575149556  0.23526950219211495  -0.9439982447628501  56.63625153937545  15.16092468409874  -5.764276419285381  26.900704170613167  31.053620491632923  -22.579886062646782  19.25829557274195  0.000000
2.542  0.000000  0.000000  0.000000  -32.271465901077725  -0.1749370650015601  -1.489618939144006  56.42912515110648  14.880512834683156  -5.947291293555941  27.25611806912955  29.424414954434837  -22.508498094142844  19.37129579242374  0.000000
2.573  0.000000  0.000000  0.000000  -32.031631033727614  -0.5790345946856398  -2.019020083278956  56.23250616193748  14.59482841483356  -6.113771578536295  27.608827356021475  27.77812060968052  -22.409951703058642  19.488019453672372  0.000000
2.604  0.000000  0.000000  0.000000  -31.80130680228161  -0.9711877389275209  -2.5166849630837276  56.04887879712914  14.29105222649285  -6.267427871241938  27.961765904846303  26.11651096172522  -22.289111422744877  19.608564446683285  0.000000
2.635  0.000000  0.000000  0.000000  -31.58028921248987  -1.3467618283444305  -2.971024082836169  55.882660898019815  13.96191130918572  -6.408268094960177  28.305898113030022  24.441194962184596  -22.14024746421045  19.731021403701416  0.000000
2.666  0.000000  0.000000  0.000000  -31.366678801602216  -1.7030057230884774  -3.377644349211342  55.735807691297204  13.61119116116037  -6.535409548662291  28.633859867916957  22.75330927971198  -21.959046539570377  19.855951200688033  0.000000
2.697  0.000000  0.000000  0.000000  -31.157909438215835  -2.0352838439444345  -3.736523774359901  55.609109376563495  13.246062737721832  -6.647895488466149  28.95229791829215  21.056709397872172  -21.75271352715805  19.98111853125648  0.000000
2.7279999999999998  0.000000  0.000000  0.000000  -30.950702460683623  -2.342156236261818  -4.037840542537444  55.50073122088249  12.869098139070099  -6.75286686929398  29.27090313944227  19.352894247960585  -21.53231142209542  20.108492055538434  0.000000
2.759  0.000000  0.000000  0.000000  -30.745948423472143  -2.622384763258263  -4.290498283981677  55.409232835242015  12.498746861116905  -6.845872131599141  29.589095927248902  17.64346335068155  -21.297153741476556  20.23720828751792  0.000000
2.79  0.000000  0.000000  0.000000  -30.543514991505287  -2.8688908987361974  -4.510469032530811  55.329120442888645  12.156132248818798  -6.915187906494536  29.910468996442045  15.933001168345816  -21.05261221888904  20.367714016763703  0.000000
2.821  0.000000  0.000000  0.000000  -30.344175983450874  -3.078555250970455  -4.704335691013387  55.26246702391787  11.849906396578659  -6.963921666858168  30.23490206858081  14.237566527339757  -20.79688332372152  20.49900355850133  0.000000
2.852  0.000000  0.000000  0.000000  -30.147131343931935  -3.245712937297296  -4.866143687200754  55.202923520423965  11.575049733982977  -6.994172598811553  30.563648323221646  12.57093683596831  -20.53549143473782  20.63277439896625  0.000000
2.883  0.000000  0.000000  0.000000  -29.95633997944405  -3.3644570323089327  -4.993752249215377  55.15072282383783  11.328442906994823  -7.008094400101057  30.911766555457785  10.950330589415497  -20.281648536522372  20.768050253172532  0.000000
2.914  0.000000  0.000000  0.000000  -29.768041499033703  -3.432011600065437  -5.085846848463749  55.096983318157186  11.1091544724439  -7.008034351465796  31.326931584249223  9.388241074584263  -20.08900675436946  20.9075279056238  0.000000
2.945  0.000000  0.000000  0.000000  -29.589475691271414  -3.448500313615606  -5.144710936407123  55.04347243125661  10.91574989243768  -6.9936912462478045  31.888357429906975  7.901329155045788  -20.034208847376192  21.04972608341628  0.000000
2.976  0.000000  0.000000  0.000000  -29.413085599932458  -3.4175879230297532  -5.177507464766339  54.98891968562904  10.749919532961801  -6.96679292107947  32.78629199324194  6.5009661750658765  -20.319514228329368  21.19677346429025  0.000000
3.007  0.000000  0.000000  0.000000  -29.259958362359765  -3.3495367349169363  -5.193193128101676  54.939363109770916  10.610673428626807  -6.916729500886811  34.298397386467975  5.207258970596021  -21.22299553769531  21.34795073866246  0.000000
3.038  0.000000  0.000000  0.000000  -29.106687800098847  -3.261950299750572  -5.220906272160929  54.90588935962067  10.504133348309459  -6.848996204616278  37.09371045559582  4.047354892986065  -23.444889822140425  21.504774423593346  0.000000
